<svg width="50" height="50" viewBox="0 0 50 50" fill="none" xmlns="http://www.w3.org/2000/svg">
<path d="M43.8122 30.5555H18.3656L18.9338 33.3333H42.2339C43.5708 33.3333 44.5617 34.5747 44.2654 35.8784L43.7865 37.9857C45.409 38.7733 46.5278 40.4365 46.5278 42.3611C46.5278 45.0696 44.3126 47.2608 41.5951 47.2217C39.0063 47.1845 36.8773 45.0836 36.8074 42.4954C36.7692 41.0816 37.3356 39.8002 38.266 38.8888H20.0674C20.9681 39.7713 21.5278 41.0005 21.5278 42.3611C21.5278 45.1226 19.225 47.3464 16.4349 47.2168C13.9575 47.1018 11.9426 45.1001 11.8124 42.6233C11.7119 40.7107 12.7183 39.0248 14.2474 38.1454L8.14957 8.33333H2.08333C0.932726 8.33333 0 7.4006 0 6.24999V4.8611C0 3.7105 0.932726 2.77777 2.08333 2.77777H10.9834C11.9731 2.77777 12.8261 3.47404 13.0245 4.44357L13.8201 8.33333H47.9158C49.2527 8.33333 50.2436 9.57473 49.9473 10.8784L45.8437 28.9339C45.6282 29.8825 44.785 30.5555 43.8122 30.5555ZM35.4167 17.3611H31.25V13.8889C31.25 13.1218 30.6282 12.5 29.8611 12.5H28.4722C27.7051 12.5 27.0833 13.1218 27.0833 13.8889V17.3611H22.9167C22.1496 17.3611 21.5278 17.9829 21.5278 18.75V20.1389C21.5278 20.906 22.1496 21.5278 22.9167 21.5278H27.0833V25C27.0833 25.7671 27.7051 26.3889 28.4722 26.3889H29.8611C30.6282 26.3889 31.25 25.7671 31.25 25V21.5278H35.4167C36.1838 21.5278 36.8056 20.906 36.8056 20.1389V18.75C36.8056 17.9829 36.1838 17.3611 35.4167 17.3611Z" fill="white"/>
</svg>
