<svg width="48" height="48" viewBox="0 0 48 48" fill="none" xmlns="http://www.w3.org/2000/svg">
<g clip-path="url(#clip0_21_64)">
<path d="M24 0.75C11.1562 0.75 0.75 11.1562 0.75 24C0.75 36.8438 11.1562 47.25 24 47.25C36.8438 47.25 47.25 36.8438 47.25 24C47.25 11.1562 36.8438 0.75 24 0.75ZM11.625 27.75C11.0063 27.75 10.5 27.2437 10.5 26.625V21.375C10.5 20.7563 11.0063 20.25 11.625 20.25H36.375C36.9937 20.25 37.5 20.7563 37.5 21.375V26.625C37.5 27.2437 36.9937 27.75 36.375 27.75H11.625Z" fill="#2E1DF6"/>
</g>
<defs>
<clipPath id="clip0_21_64">
<rect width="48" height="48" fill="white"/>
</clipPath>
</defs>
</svg>
